# xmcd
#
# Track frame offsets: 
#        183
#        12615
#        28090
#        38760
#        48458
#        63690
#        80893
#        95130
#        109268
#        124928
#        136548
#        147533
#        160950
#        176010
#
# Disc length: 2523 seconds
#
# Revision: 2
# Processed by: cddbd v1.5.1PL2 Copyright (c) Steve Scherf et al.
# Submitted via: ExactAudioCopy v0.95b3
#
DISCID=d109d90e
DTITLE=Kenny Rogers - 42 country songs
DYEAR=1990
DGENRE=Country
TTITLE0=Reuben James
TTITLE1=My Washington Woman
TTITLE2=She Even Woke Me Up To Say Goodbye
TTITLE3=Once Again She's All Allone
TTITLE4=Just Dropped In
TTITLE5=Something's Burning
TTITLE6=It's Raining In My Mind
TTITLE7=Sunshine
TTITLE8=Tulsa Turnaround
TTITLE9=Poem For My Little Lady
TTITLE10=Always Leaving, Always Gone
TTITLE11=Shine On Ruby Mountain
TTITLE12=Heed The Call
TTITLE13=A Stranger In My Place
EXTD=
EXTT0=
EXTT1=
EXTT2=
EXTT3=
EXTT4=
EXTT5=
EXTT6=
EXTT7=
EXTT8=
EXTT9=
EXTT10=
EXTT11=
EXTT12=
EXTT13=
PLAYORDER=
